<svg width="14" height="16" viewBox="0 0 14 16" fill="none" xmlns="http://www.w3.org/2000/svg">
<path d="M1 1C0.446875 1 0 1.44687 0 2V5C0 5.55312 0.446875 6 1 6C1.55313 6 2 5.55312 2 5V3H4C4.55312 3 5 2.55313 5 2C5 1.44687 4.55312 1 4 1H1ZM2 11C2 10.4469 1.55313 10 1 10C0.446875 10 0 10.4469 0 11V14C0 14.5531 0.446875 15 1 15H4C4.55312 15 5 14.5531 5 14C5 13.4469 4.55312 13 4 13H2V11ZM10 1C9.44687 1 9 1.44687 9 2C9 2.55313 9.44687 3 10 3H12V5C12 5.55312 12.4469 6 13 6C13.5531 6 14 5.55312 14 5V2C14 1.44687 13.5531 1 13 1H10ZM14 11C14 10.4469 13.5531 10 13 10C12.4469 10 12 10.4469 12 11V13H10C9.44687 13 9 13.4469 9 14C9 14.5531 9.44687 15 10 15H13C13.5531 15 14 14.5531 14 14V11Z" fill="#A0AEC0"/>
</svg>
