<svg width="62" height="61" viewBox="0 0 62 61" fill="none" xmlns="http://www.w3.org/2000/svg">
<g filter="url(#filter0_d_2176_4398)">
<rect x="6" y="2" width="50" height="50" rx="12" fill="#EDF2F7"/>
<path d="M16 37.1667C16 38.9156 17.4178 40.3333 19.1667 40.3333H32.8333C34.5822 40.3333 36 38.9156 36 37.1667V22H29.5C28.5795 22 27.8333 21.2538 27.8333 20.3333V13.6667H19.1667C17.4178 13.6667 16 15.0844 16 16.8333V37.1667Z" fill="#E92FED" fill-opacity="0.4"/>
<path d="M27.8333 13.6667V20.3333C27.8333 21.2538 28.5795 22 29.5 22H36L27.8333 13.6667Z" fill="url(#paint0_linear_2176_4398)"/>
<path d="M20.9114 35.3333H20.3865C19.8509 35.3333 19.4167 34.8991 19.4167 34.3635C19.4167 34.0196 19.6858 33.7358 20.0293 33.7178L20.2346 33.7069C20.7219 33.6813 21.1963 33.4624 21.4362 33.0374C21.7479 32.4853 21.8687 31.9319 22 31.0833C22.1185 30.5043 22.2673 30.1614 22.6014 29.8316C22.8414 29.5946 23.1817 29.5 23.5189 29.5C23.7801 29.5 24.0425 29.5566 24.2575 29.7049C24.8032 30.0812 24.9205 30.4637 25.0833 31.0833L25.3068 32.1448C25.3608 32.4016 25.6501 32.5283 25.8863 32.4138C26.7868 31.9773 27.5067 31.9499 28.3897 32.5578C28.6332 32.7254 28.7953 32.9843 28.8802 33.2675C28.9513 33.5044 29.1694 33.6667 29.4167 33.6667H31.5833V35.3333H29.2014C28.5094 35.3333 27.8698 34.9646 27.5231 34.3657L27.3134 34.0035C27.2226 33.8466 27.055 33.75 26.8737 33.75C26.6909 33.75 26.5188 33.8361 26.4091 33.9823L26.3333 34.0833L25.7563 35.045C25.649 35.2239 25.4557 35.3333 25.2471 35.3333C24.9923 35.3333 24.758 35.1934 24.6371 34.969L24.5221 34.7554C24.3415 34.42 24.207 34.0618 24.1221 33.6904L23.8958 32.7005C23.814 32.3424 23.3081 32.3312 23.2104 32.6852L23.0113 33.4068C22.9485 33.6346 22.8564 33.8534 22.7373 34.0575L22.6262 34.2479C22.4337 34.5779 22.1652 34.857 21.8429 35.0621C21.5645 35.2392 21.2414 35.3333 20.9114 35.3333Z" fill="white"/>
<path d="M42.2571 20.5752C41.9907 20.7583 41.4247 21.2411 41.0085 21.6739L40.276 22.4397L43.9052 26.1022L44.7209 25.3031C45.1704 24.8703 45.6365 24.3209 45.7697 24.0712C46.3024 23.039 45.9029 21.907 44.6543 20.9081C43.8552 20.2755 42.9396 20.1424 42.2571 20.5752Z" fill="url(#paint1_linear_2176_4398)"/>
<path d="M35.2509 27.5293C31.4886 31.3249 31.705 30.992 31.139 33.4725C30.8726 34.6211 30.9891 35.2204 31.4886 35.3869C31.655 35.4369 32.6373 35.2537 33.686 34.9874L35.6005 34.5046L42.5259 27.5792L40.7446 25.7979C39.7624 24.7991 38.9134 24 38.8634 24C38.8135 24 37.182 25.5982 35.2509 27.5293Z" fill="url(#paint2_linear_2176_4398)"/>
</g>
<defs>
<filter id="filter0_d_2176_4398" x="0.5" y="4.76837e-07" width="61" height="61" filterUnits="userSpaceOnUse" color-interpolation-filters="sRGB">
<feFlood flood-opacity="0" result="BackgroundImageFix"/>
<feColorMatrix in="SourceAlpha" type="matrix" values="0 0 0 0 0 0 0 0 0 0 0 0 0 0 0 0 0 0 127 0" result="hardAlpha"/>
<feOffset dy="3.5"/>
<feGaussianBlur stdDeviation="2.75"/>
<feColorMatrix type="matrix" values="0 0 0 0 0 0 0 0 0 0 0 0 0 0 0 0 0 0 0.02 0"/>
<feBlend mode="normal" in2="BackgroundImageFix" result="effect1_dropShadow_2176_4398"/>
<feBlend mode="normal" in="SourceGraphic" in2="effect1_dropShadow_2176_4398" result="shape"/>
</filter>
<linearGradient id="paint0_linear_2176_4398" x1="16" y1="17.4762" x2="39.4816" y2="23.3491" gradientUnits="userSpaceOnUse">
<stop stop-color="#E92FED"/>
<stop offset="1" stop-color="#7C15CD"/>
</linearGradient>
<linearGradient id="paint1_linear_2176_4398" x1="31" y1="22.4762" x2="47.8562" y2="28.0705" gradientUnits="userSpaceOnUse">
<stop stop-color="#E92FED"/>
<stop offset="1" stop-color="#7C15CD"/>
</linearGradient>
<linearGradient id="paint2_linear_2176_4398" x1="31" y1="22.4762" x2="47.8562" y2="28.0705" gradientUnits="userSpaceOnUse">
<stop stop-color="#E92FED"/>
<stop offset="1" stop-color="#7C15CD"/>
</linearGradient>
</defs>
</svg>
