<svg width="62" height="61" viewBox="0 0 62 61" fill="none" xmlns="http://www.w3.org/2000/svg">
<g filter="url(#filter0_d_1523_3911)">
<rect x="6" y="2" width="50" height="50" rx="12" fill="url(#paint0_linear_1523_3911)"/>
<path d="M22.0621 27.1722C22.0621 22.236 26.0617 18.2364 30.9979 18.2364C33.7087 18.2364 36.1359 19.4436 37.777 21.3511C38.1465 21.785 38.7995 21.8322 39.2291 21.4628C39.6587 21.0933 39.7102 20.4403 39.3408 20.0107C37.3259 17.6608 34.3359 16.1743 30.9979 16.1743C24.9233 16.1743 20 21.0976 20 27.1722V28.8906C20 29.462 20.4597 29.9217 21.031 29.9217C21.6024 29.9217 22.0621 29.462 22.0621 28.8906V27.1722ZM41.7594 24.8996C41.6434 24.3411 41.0935 23.9845 40.5393 24.1048C39.9852 24.2251 39.6243 24.7707 39.7446 25.3249C39.8692 25.922 39.9379 26.5407 39.9379 27.1765V28.8949C39.9379 29.4663 40.3976 29.926 40.969 29.926C41.5403 29.926 42 29.4663 42 28.8949V27.1722C42 26.3946 41.9184 25.6342 41.7637 24.8996H41.7594ZM30.9979 19.6112C30.1816 19.6112 29.3911 19.74 28.6565 19.9806C28.0035 20.1954 27.8532 20.9988 28.2999 21.5229C28.605 21.8795 29.1076 21.9869 29.563 21.8623C30.0184 21.7377 30.4995 21.6733 30.9979 21.6733C34.0351 21.6733 36.4968 24.1349 36.4968 27.1722V28.2419C36.4968 29.3245 36.4323 30.4028 36.3078 31.4768C36.2347 32.104 36.7116 32.6711 37.3474 32.6711C37.8543 32.6711 38.2882 32.3017 38.3484 31.799C38.4901 30.6219 38.5632 29.4362 38.5632 28.2462V27.1722C38.5632 22.9964 35.1779 19.6112 31.0021 19.6112H30.9979ZM26.4741 22.5625C26.0832 22.1072 25.3872 22.0728 25.0178 22.5454C24.0254 23.8213 23.4368 25.428 23.4368 27.1722V28.2419C23.4368 29.2815 23.3251 30.3212 23.1017 31.3308C22.9557 32.0009 23.4411 32.6711 24.1285 32.6711C24.5796 32.6711 24.9834 32.3704 25.0822 31.9279C25.3572 30.7207 25.4989 29.4878 25.4989 28.2419V27.1722C25.4989 26.0037 25.8641 24.9211 26.4827 24.0318C26.792 23.585 26.8264 22.975 26.4741 22.5625ZM30.9979 23.048C28.721 23.048 26.8737 24.8953 26.8737 27.1722V28.2419C26.8737 29.7842 26.676 31.3136 26.2808 32.8C26.1176 33.4143 26.5686 34.0458 27.2045 34.0458C27.6126 34.0458 27.9734 33.7795 28.0808 33.3843C28.5319 31.7088 28.7639 29.9818 28.7639 28.2419V27.1722C28.7639 25.9392 29.7649 24.9383 30.9979 24.9383C32.2308 24.9383 33.2318 25.9392 33.2318 27.1722V28.2419C33.2318 29.8014 33.0814 31.3522 32.785 32.8773C32.669 33.4745 33.1158 34.0458 33.7215 34.0458C34.1597 34.0458 34.5378 33.7451 34.6237 33.3155C34.9545 31.6487 35.122 29.9517 35.122 28.2419V27.1722C35.122 24.8953 33.2748 23.048 30.9979 23.048ZM32.0289 27.1722C32.0289 26.6008 31.5692 26.1411 30.9979 26.1411C30.4265 26.1411 29.9668 26.6008 29.9668 27.1722V28.2419C29.9668 30.8152 29.4942 33.3671 28.5706 35.7686L28.3171 36.4259C28.1109 36.9586 28.3773 37.5557 28.91 37.7576C29.4427 37.9595 30.0398 37.6975 30.2417 37.1648L30.4952 36.5075C31.5091 33.8697 32.0289 31.0687 32.0289 28.2419V27.1722Z" fill="white"/>
</g>
<defs>
<filter id="filter0_d_1523_3911" x="0.5" y="4.76837e-07" width="61" height="61" filterUnits="userSpaceOnUse" color-interpolation-filters="sRGB">
<feFlood flood-opacity="0" result="BackgroundImageFix"/>
<feColorMatrix in="SourceAlpha" type="matrix" values="0 0 0 0 0 0 0 0 0 0 0 0 0 0 0 0 0 0 127 0" result="hardAlpha"/>
<feOffset dy="3.5"/>
<feGaussianBlur stdDeviation="2.75"/>
<feColorMatrix type="matrix" values="0 0 0 0 0 0 0 0 0 0 0 0 0 0 0 0 0 0 0.02 0"/>
<feBlend mode="normal" in2="BackgroundImageFix" result="effect1_dropShadow_1523_3911"/>
<feBlend mode="normal" in="SourceGraphic" in2="effect1_dropShadow_1523_3911" result="shape"/>
</filter>
<linearGradient id="paint0_linear_1523_3911" x1="31" y1="2" x2="31" y2="52" gradientUnits="userSpaceOnUse">
<stop stop-color="#FC586B"/>
<stop offset="1" stop-color="#EE181C"/>
</linearGradient>
</defs>
</svg>
