<svg width="62" height="61" viewBox="0 0 62 61" fill="none" xmlns="http://www.w3.org/2000/svg">
<g filter="url(#filter0_d_2172_4299)">
<rect x="6" y="2" width="50" height="50" rx="12" fill="#EDF2F7"/>
<path d="M31 42C34.9782 42 38.7936 40.4196 41.6066 37.6066C44.4196 34.7936 46 30.9782 46 27C46 23.0218 44.4196 19.2064 41.6066 16.3934C38.7936 13.5804 34.9782 12 31 12C27.0218 12 23.2064 13.5804 20.3934 16.3934C17.5804 19.2064 16 23.0218 16 27C16 30.9782 17.5804 34.7936 20.3934 37.6066C23.2064 40.4196 27.0218 42 31 42ZM31 19.5C31.7793 19.5 32.4062 20.127 32.4062 20.9062V27.4688C32.4062 28.248 31.7793 28.875 31 28.875C30.2207 28.875 29.5938 28.248 29.5938 27.4688V20.9062C29.5938 20.127 30.2207 19.5 31 19.5ZM29.125 32.625C29.125 32.1277 29.3225 31.6508 29.6742 31.2992C30.0258 30.9475 30.5027 30.75 31 30.75C31.4973 30.75 31.9742 30.9475 32.3258 31.2992C32.6775 31.6508 32.875 32.1277 32.875 32.625C32.875 33.1223 32.6775 33.5992 32.3258 33.9508C31.9742 34.3025 31.4973 34.5 31 34.5C30.5027 34.5 30.0258 34.3025 29.6742 33.9508C29.3225 33.5992 29.125 33.1223 29.125 32.625Z" fill="#FC586B" fill-opacity="0.4"/>
<path d="M31 19.5C31.7793 19.5 32.4062 20.127 32.4062 20.9062V27.4688C32.4062 28.248 31.7793 28.875 31 28.875C30.2207 28.875 29.5938 28.248 29.5938 27.4688V20.9062C29.5938 20.127 30.2207 19.5 31 19.5Z" fill="url(#paint0_linear_2172_4299)"/>
<path d="M29.125 32.625C29.125 32.1277 29.3225 31.6508 29.6742 31.2992C30.0258 30.9475 30.5027 30.75 31 30.75C31.4973 30.75 31.9742 30.9475 32.3258 31.2992C32.6775 31.6508 32.875 32.1277 32.875 32.625C32.875 33.1223 32.6775 33.5992 32.3258 33.9508C31.9742 34.3025 31.4973 34.5 31 34.5C30.5027 34.5 30.0258 34.3025 29.6742 33.9508C29.3225 33.5992 29.125 33.1223 29.125 32.625Z" fill="url(#paint1_linear_2172_4299)"/>
</g>
<defs>
<filter id="filter0_d_2172_4299" x="0.5" y="4.76837e-07" width="61" height="61" filterUnits="userSpaceOnUse" color-interpolation-filters="sRGB">
<feFlood flood-opacity="0" result="BackgroundImageFix"/>
<feColorMatrix in="SourceAlpha" type="matrix" values="0 0 0 0 0 0 0 0 0 0 0 0 0 0 0 0 0 0 127 0" result="hardAlpha"/>
<feOffset dy="3.5"/>
<feGaussianBlur stdDeviation="2.75"/>
<feColorMatrix type="matrix" values="0 0 0 0 0 0 0 0 0 0 0 0 0 0 0 0 0 0 0.02 0"/>
<feBlend mode="normal" in2="BackgroundImageFix" result="effect1_dropShadow_2172_4299"/>
<feBlend mode="normal" in="SourceGraphic" in2="effect1_dropShadow_2172_4299" result="shape"/>
</filter>
<linearGradient id="paint0_linear_2172_4299" x1="31" y1="12" x2="31" y2="42" gradientUnits="userSpaceOnUse">
<stop stop-color="#FC586B"/>
<stop offset="1" stop-color="#EE181C"/>
</linearGradient>
<linearGradient id="paint1_linear_2172_4299" x1="31" y1="12" x2="31" y2="42" gradientUnits="userSpaceOnUse">
<stop stop-color="#FC586B"/>
<stop offset="1" stop-color="#EE181C"/>
</linearGradient>
</defs>
</svg>
