<svg width="62" height="61" viewBox="0 0 62 61" fill="none" xmlns="http://www.w3.org/2000/svg">
<g filter="url(#filter0_d_2172_4323)">
<rect x="6" y="2" width="50" height="50" rx="12" fill="#EDF2F7"/>
<path d="M46 27C46 35.2843 39.2843 42 31 42C22.7157 42 16 35.2843 16 27C16 18.7157 22.7157 12 31 12C39.2843 12 46 18.7157 46 27Z" fill="#21D4FD" fill-opacity="0.4"/>
<path d="M29.211 20.2569C29.211 19.4969 29.8271 18.8808 30.5871 18.8808H31.1376C31.8976 18.8808 32.5138 19.4969 32.5138 20.2569V25.4863H29.211V20.2569Z" fill="url(#paint0_linear_2172_4323)"/>
<path d="M30.5871 28.789C29.8271 28.789 29.211 28.1729 29.211 27.4129V25.4863H36.0917C36.8518 25.4863 37.4679 26.1024 37.4679 26.8624V27.4129C37.4679 28.1729 36.8518 28.789 36.0917 28.789H30.5871Z" fill="url(#paint1_linear_2172_4323)"/>
</g>
<defs>
<filter id="filter0_d_2172_4323" x="0.5" y="4.76837e-07" width="61" height="61" filterUnits="userSpaceOnUse" color-interpolation-filters="sRGB">
<feFlood flood-opacity="0" result="BackgroundImageFix"/>
<feColorMatrix in="SourceAlpha" type="matrix" values="0 0 0 0 0 0 0 0 0 0 0 0 0 0 0 0 0 0 127 0" result="hardAlpha"/>
<feOffset dy="3.5"/>
<feGaussianBlur stdDeviation="2.75"/>
<feColorMatrix type="matrix" values="0 0 0 0 0 0 0 0 0 0 0 0 0 0 0 0 0 0 0.02 0"/>
<feBlend mode="normal" in2="BackgroundImageFix" result="effect1_dropShadow_2172_4323"/>
<feBlend mode="normal" in="SourceGraphic" in2="effect1_dropShadow_2172_4323" result="shape"/>
</filter>
<linearGradient id="paint0_linear_2172_4323" x1="29.6697" y1="20.4661" x2="37.204" y2="20.4926" gradientUnits="userSpaceOnUse">
<stop stop-color="#21D4FD"/>
<stop offset="1" stop-color="#2152FF"/>
</linearGradient>
<linearGradient id="paint1_linear_2172_4323" x1="29.6697" y1="20.4661" x2="37.204" y2="20.4926" gradientUnits="userSpaceOnUse">
<stop stop-color="#21D4FD"/>
<stop offset="1" stop-color="#2152FF"/>
</linearGradient>
</defs>
</svg>
